<?xml version="1.0" encoding="utf-8" ?>
<svg baseProfile="tiny" height="1024" version="1.2" width="1024" xmlns="http://www.w3.org/2000/svg" xmlns:ev="http://www.w3.org/2001/xml-events" xmlns:xlink="http://www.w3.org/1999/xlink"><defs /><path d="M 489.0 170.0 L 271.0 722.0 L 249.0 759.0 L 220.0 790.0 L 191.0 809.0 L 164.0 821.0 L 162.0 826.0 L 388.0 826.0 L 362.0 804.0 L 347.0 778.0 L 340.0 749.0 L 340.0 720.0 L 344.0 697.0 L 365.0 631.0 L 512.0 261.0 L 667.0 653.0 L 679.0 694.0 L 683.0 718.0 L 683.0 748.0 L 679.0 769.0 L 663.0 801.0 L 636.0 826.0 L 860.0 826.0 L 860.0 821.0 L 830.0 808.0 L 800.0 787.0 L 781.0 767.0 L 762.0 740.0 L 738.0 687.0 L 536.0 170.0 Z" fill="#F7E7CE" fill-rule="evenodd" /><path d="M 512.0 446.0 L 468.0 553.0 L 468.0 556.0 L 478.0 559.0 L 494.0 569.0 L 507.0 583.0 L 512.0 594.0 L 519.0 580.0 L 532.0 567.0 L 541.0 561.0 L 556.0 555.0 Z" fill="#F7E7CE" /></svg>